<?xml version="1.0" encoding="UTF-8"?>
<svg width="8px" height="12px" viewBox="0 0 8 12" version="1.1" xmlns="http://www.w3.org/2000/svg" xmlns:xlink="http://www.w3.org/1999/xlink">
    <title>arrow control icon</title>
    <g id="Components" stroke="none" stroke-width="1" fill="none" fill-rule="evenodd">
        <g id="Components---Bars,-Controls,-Menus,-and-Lists" transform="translate(-671.000000, -994.000000)" fill="#000000" fill-rule="nonzero">
            <g id="Controls" transform="translate(20.000000, 957.000000)">
                <g id="Pop-Up-Button" transform="translate(599.000000, 33.000000)">
                    <g id="Pop-Up-Button---Enabled-with-Color" transform="translate(1.000000, 0.000000)">
                        <g id="PopUpButton---No-Color" transform="translate(47.000000, 2.000000)">
                            <path d="M8.11170959,13.0924606 C8.22663879,13.090716 8.33155441,13.0681966 8.42645645,13.0249023 C8.52135849,12.9816081 8.61593119,12.9125722 8.71017456,12.8177948 L11.1486816,10.3169632 C11.2800954,10.1855494 11.3458023,10.0244064 11.3458023,9.83353424 C11.3458023,9.70265452 11.3142217,9.58315913 11.2510605,9.47504807 C11.1878993,9.366937 11.1028239,9.28042857 10.9958344,9.21552277 C10.8888448,9.15061696 10.7716726,9.11816406 10.6443176,9.11816406 C10.4464315,9.11816406 10.2719193,9.19670614 10.1207809,9.35379028 L8.01098633,11.5557632 L8.2220993,11.5557632 L6.10183716,9.35379028 C5.94770813,9.19670614 5.77232361,9.11816406 5.57568359,9.11816406 C5.44654846,9.11816406 5.32893117,9.15061696 5.22283173,9.21552277 C5.11673228,9.28042857 5.0316658,9.366937 4.96763229,9.47504807 C4.90359879,9.58315913 4.87158203,9.70265452 4.87158203,9.83353424 C4.87158203,9.92749278 4.88785299,10.0142326 4.9203949,10.0937538 C4.95293681,10.173275 5.00237274,10.2479451 5.0687027,10.3177643 L7.50977325,12.8177948 C7.69345347,13.0009054 7.89409892,13.0924606 8.11170959,13.0924606 Z M5.0687027,5.25854492 L7.50977325,2.7585144 C7.69238536,2.57486979 7.8930308,2.48304749 8.11170959,2.48304749 C8.22663879,2.48479207 8.33155441,2.50788116 8.42645645,2.55231476 C8.52135849,2.59674835 8.61593119,2.66548157 8.71017456,2.7585144 L11.1486816,5.25854492 C11.2800954,5.38942464 11.3458023,5.55170695 11.3458023,5.74539185 C11.3458023,5.87449137 11.3142217,5.99297206 11.2510605,6.10083389 C11.1878993,6.20869573 11.1028239,6.29507955 10.9958344,6.35998535 C10.8888448,6.42489115 10.7716726,6.45734406 10.6443176,6.45734406 C10.4448649,6.45734406 10.2703527,6.37880198 10.1207809,6.22171783 L8.01098633,4.02054596 L8.2220993,4.02054596 L6.10183716,6.22171783 C5.9493103,6.37880198 5.77392578,6.45734406 5.57568359,6.45734406 C5.44654846,6.45734406 5.32893117,6.42489115 5.22283173,6.35998535 C5.11673228,6.29507955 5.0316658,6.20869573 4.96763229,6.10083389 C4.90359879,5.99297206 4.87158203,5.87449137 4.87158203,5.74539185 C4.87158203,5.64968872 4.88785299,5.56194305 4.9203949,5.48215485 C4.95293681,5.40236664 5.00237274,5.32783 5.0687027,5.25854492 Z" id="arrow-control-icon"></path>
                        </g>
                    </g>
                </g>
            </g>
        </g>
    </g>
</svg>