<?xml version="1.0" encoding="UTF-8"?>
<svg width="8px" height="5px" viewBox="0 0 8 5" version="1.1" xmlns="http://www.w3.org/2000/svg" xmlns:xlink="http://www.w3.org/1999/xlink">
    <title>􀆇</title>
    <g id="Components" stroke="none" stroke-width="1" fill="none" fill-rule="evenodd" fill-opacity="0.85">
        <g id="Components---Bars,-Controls,-Menus,-and-Lists" transform="translate(-1256.000000, -998.000000)" fill="#000000" fill-rule="nonzero">
            <g id="Controls" transform="translate(20.000000, 957.000000)">
                <g id="Disclosure-Button" transform="translate(1200.000000, 33.000000)">
                    <g id="Disclosure-Button---Up" transform="translate(30.000000, 0.000000)">
                        <g id="􀆇" transform="translate(6.303549, 8.171371)">
                            <path d="M0.222015381,3.10600281 C0.074005127,3.25996399 0,3.44169617 0,3.65119934 C0,3.87072245 0.0775527954,4.05928294 0.232658386,4.2168808 C0.387763977,4.37447866 0.573832194,4.45327759 0.790863037,4.45327759 C1.01537069,4.45327759 1.21208191,4.36556498 1.3809967,4.19013977 L3.77128601,1.72149658 L3.5193634,1.72149658 L5.8984375,4.19013977 C6.06491089,4.36556498 6.26075745,4.45327759 6.48597717,4.45327759 C6.70224508,4.45327759 6.88793182,4.37447866 7.04303741,4.2168808 C7.19814301,4.05928294 7.2756958,3.87072245 7.2756958,3.65119934 C7.2756958,3.43421936 7.20169067,3.25248718 7.05368042,3.10600281 L4.31022644,0.305480957 C4.10809835,0.104319255 3.88478597,0.00249226888 3.64028931,0 C3.39584351,0 3.17253113,0.101826986 2.97035217,0.305480957 L0.222015381,3.10600281 Z" id="Path"></path>
                        </g>
                    </g>
                </g>
            </g>
        </g>
    </g>
</svg>