<?xml version="1.0" encoding="UTF-8"?>
<svg width="8px" height="5px" viewBox="0 0 8 5" version="1.1" xmlns="http://www.w3.org/2000/svg" xmlns:xlink="http://www.w3.org/1999/xlink">
    <title>Path</title>
    <g id="Components" stroke="none" stroke-width="1" fill="none" fill-rule="evenodd" fill-opacity="0.85">
        <g id="Components---Bars,-Controls,-Menus,-and-Lists" transform="translate(-1226.000000, -998.000000)" fill="#000000" fill-rule="nonzero">
            <g id="Controls" transform="translate(20.000000, 957.000000)">
                <g id="Disclosure-Button" transform="translate(1200.000000, 33.000000)">
                    <g id="􀆈" transform="translate(6.303549, 8.340363)">
                        <path d="M3.64028931,4.45327759 C3.88478597,4.45078532 4.10809835,4.3489329 4.31022644,4.14772034 L7.05368042,1.34727478 C7.20169067,1.19926453 7.2756958,1.01753235 7.2756958,0.802078247 C7.2756958,0.582555135 7.19814301,0.393994649 7.04303741,0.23639679 C6.88793182,0.0787989299 6.70224508,0 6.48597717,0 C6.26375834,0 6.06791178,0.0877126058 5.8984375,0.263137817 L3.5193634,2.7306366 L3.77128601,2.7306366 L1.3809967,0.263137817 C1.20979309,0.0877126058 1.01308187,0 0.790863037,0 C0.573832194,0 0.387763977,0.0787989299 0.232658386,0.23639679 C0.0775527954,0.393994649 0,0.582555135 0,0.802078247 C0,1.01005554 0.074005127,1.19178772 0.222015381,1.34727478 L2.97035217,4.14772034 C3.17405701,4.35142517 3.39736938,4.45327759 3.64028931,4.45327759 Z" id="Path"></path>
                    </g>
                </g>
            </g>
        </g>
    </g>
</svg>