<?xml version="1.0" encoding="UTF-8"?>
<svg width="8px" height="12px" viewBox="0 0 8 12" version="1.1" xmlns="http://www.w3.org/2000/svg" xmlns:xlink="http://www.w3.org/1999/xlink">
    <title>Combined Shape</title>
    <g id="Components" stroke="none" stroke-width="1" fill="none" fill-rule="evenodd" fill-opacity="0.85">
        <g id="Components---Bars,-Controls,-Menus,-and-Lists" transform="translate(-1026.000000, -994.000000)" fill="#000000" fill-rule="nonzero">
            <g id="Controls" transform="translate(20.000000, 957.000000)">
                <g id="Arrow-Button---Enabled" transform="translate(1000.000000, 33.000000)">
                    <path d="M9.94383872,15.7936401 C10.1883354,15.7911479 10.4116478,15.6892955 10.6137758,15.4880829 L13.3572298,12.6876373 C13.5052401,12.5396271 13.5792452,12.3578949 13.5792452,12.1424408 C13.5792452,11.9229177 13.5016924,11.7343572 13.3465868,11.5767593 C13.1914812,11.4191615 13.0057945,11.3403625 12.7895266,11.3403625 C12.5673078,11.3403625 12.3714612,11.4280752 12.2019869,11.6035004 L9.82291281,14.0709991 L10.0748354,14.0709991 L7.68454611,11.6035004 C7.5133425,11.4280752 7.31663128,11.3403625 7.09441245,11.3403625 C6.8773816,11.3403625 6.69131339,11.4191615 6.5362078,11.5767593 C6.3811022,11.7343572 6.30354941,11.9229177 6.30354941,12.1424408 C6.30354941,12.3504181 6.37755454,12.5321503 6.52556479,12.6876373 L9.27390158,15.4880829 C9.47760642,15.6917877 9.70091879,15.7936401 9.94383872,15.7936401 Z M6.52556479,7.27737427 C6.37755454,7.43133545 6.30354941,7.61306763 6.30354941,7.8225708 C6.30354941,8.04209391 6.3811022,8.2306544 6.5362078,8.38825226 C6.69131339,8.54585012 6.8773816,8.62464905 7.09441245,8.62464905 C7.3189201,8.62464905 7.51563132,8.53693644 7.68454611,8.36151123 L10.0748354,5.89286804 L9.82291281,5.89286804 L12.2019869,8.36151123 C12.3684603,8.53693644 12.5643069,8.62464905 12.7895266,8.62464905 C13.0057945,8.62464905 13.1914812,8.54585012 13.3465868,8.38825226 C13.5016924,8.2306544 13.5792452,8.04209391 13.5792452,7.8225708 C13.5792452,7.60559082 13.5052401,7.42385864 13.3572298,7.27737427 L10.6137758,4.47685242 C10.4116478,4.27569071 10.1883354,4.17386373 9.94383872,4.17137146 C9.69939291,4.17137146 9.47608054,4.27319845 9.27390158,4.47685242 L6.52556479,7.27737427 Z" id="Combined-Shape"></path>
                </g>
            </g>
        </g>
    </g>
</svg>