<?xml version="1.0" encoding="UTF-8"?>
<svg width="10px" height="10px" viewBox="0 0 10 10" version="1.1" xmlns="http://www.w3.org/2000/svg" xmlns:xlink="http://www.w3.org/1999/xlink">
    <title>Path</title>
    <g id="Components" stroke="none" stroke-width="1" fill="none" fill-rule="evenodd">
        <g id="Components---Bars,-Controls,-Menus,-and-Lists" transform="translate(-22.000000, -1286.000000)" fill="#FFFFFF" fill-rule="nonzero">
            <g id="Controls" transform="translate(20.000000, 957.000000)">
                <g id="Checkboxes" transform="translate(0.000000, 303.000000)">
                    <g id="Checkbox" transform="translate(0.000000, 22.000000)">
                        <g id="Checkbox-Type" transform="translate(0.000000, 2.000000)">
                            <g id="􀆅" transform="translate(2.434570, 2.714355)">
                                <path d="M3.51318359,8.69140625 C3.85009766,8.69140625 4.10725911,8.55875651 4.28466797,8.29345703 L8.83056641,1.33544922 C8.89404297,1.23942057 8.94042969,1.14583333 8.96972656,1.0546875 C8.99902344,0.963541667 9.01367188,0.87483724 9.01367188,0.788574219 C9.01367188,0.560709635 8.93676758,0.372314453 8.78295898,0.223388672 C8.62915039,0.0744628906 8.4358724,0 8.203125,0 C8.04199219,0 7.90690104,0.0317382812 7.79785156,0.0952148438 C7.68880208,0.158691406 7.58463542,0.266927083 7.48535156,0.419921875 L3.49365234,6.72363281 L1.46484375,4.20898438 C1.2906901,3.99739583 1.07421875,3.89160156 0.815429688,3.89160156 C0.579427083,3.89160156 0.384521484,3.96728516 0.230712891,4.11865234 C0.0769042969,4.27001953 0,4.46044922 0,4.68994141 C0,4.79248047 0.0174967448,4.89054362 0.0524902344,4.98413086 C0.087483724,5.0777181 0.148925781,5.17496745 0.236816406,5.27587891 L2.75878906,8.33007812 C2.96061198,8.57096354 3.21207682,8.69140625 3.51318359,8.69140625 Z" id="Path"></path>
                            </g>
                        </g>
                    </g>
                </g>
            </g>
        </g>
    </g>
</svg>