<?xml version="1.0" encoding="UTF-8"?>
<svg width="12.9492188px" height="12.9492188px" viewBox="0 0 12.9492188 12.9492188" version="1.1" xmlns="http://www.w3.org/2000/svg" xmlns:xlink="http://www.w3.org/1999/xlink">
    <title>Shape</title>
    <g id="Components" stroke="none" stroke-width="1" fill="none" fill-rule="evenodd">
        <g id="Components---Bars,-Controls,-Menus,-and-Lists" transform="translate(-1362.990723, -1324.942383)" fill="#808080" fill-rule="nonzero">
            <g id="Controls" transform="translate(20.000000, 957.000000)">
                <g id="Text-Fields" transform="translate(1200.000000, 303.000000)">
                    <g id="Text-Field" transform="translate(0.000000, 60.000000)">
                        <g id="Clear" transform="translate(142.990723, 4.942383)">
                            <path d="M6.47460938,12.9492188 C7.35904948,12.9492188 8.19165039,12.7799479 8.97241211,12.4414062 C9.75317383,12.1028646 10.4418945,11.6352539 11.0385742,11.0385742 C11.6352539,10.4418945 12.1028646,9.75317383 12.4414062,8.97241211 C12.7799479,8.19165039 12.9492188,7.35904948 12.9492188,6.47460938 C12.9492188,5.59016927 12.7799479,4.75756836 12.4414062,3.97680664 C12.1028646,3.19604492 11.6352539,2.50732422 11.0385742,1.91064453 C10.4418945,1.31396484 9.75211589,0.846354167 8.96923828,0.5078125 C8.18636068,0.169270833 7.35270182,0 6.46826172,0 C5.58382161,0 4.7512207,0.169270833 3.97045898,0.5078125 C3.18969727,0.846354167 2.50203451,1.31396484 1.9074707,1.91064453 C1.3129069,2.50732422 0.846354167,3.19604492 0.5078125,3.97680664 C0.169270833,4.75756836 0,5.59016927 0,6.47460938 C0,7.35904948 0.169270833,8.19165039 0.5078125,8.97241211 C0.846354167,9.75317383 1.31396484,10.4418945 1.91064453,11.0385742 C2.50732422,11.6352539 3.19604492,12.1028646 3.97680664,12.4414062 C4.75756836,12.7799479 5.59016927,12.9492188 6.47460938,12.9492188 Z M4.34179688,9.140625 C4.19791667,9.140625 4.07519531,9.08878581 3.97363281,8.98510742 C3.87207031,8.88142904 3.82128906,8.75764974 3.82128906,8.61376953 C3.82128906,8.46988932 3.87207031,8.34716797 3.97363281,8.24560547 L5.73828125,6.48095703 L3.97363281,4.72265625 C3.87207031,4.61686198 3.82128906,4.49414062 3.82128906,4.35449219 C3.82128906,4.20638021 3.87207031,4.08260091 3.97363281,3.9831543 C4.07519531,3.88370768 4.19791667,3.83398438 4.34179688,3.83398438 C4.48144531,3.83398438 4.60416667,3.88264974 4.70996094,3.97998047 L6.48095703,5.74462891 L8.26464844,3.97363281 C8.36621094,3.87207031 8.48681641,3.82128906 8.62646484,3.82128906 C8.77034505,3.82128906 8.89306641,3.87207031 8.99462891,3.97363281 C9.09619141,4.07519531 9.14697266,4.19791667 9.14697266,4.34179688 C9.14697266,4.48567708 9.09619141,4.61051432 8.99462891,4.71630859 L7.22363281,6.48095703 L8.98828125,8.23925781 C9.08984375,8.33235677 9.140625,8.45719401 9.140625,8.61376953 C9.140625,8.75764974 9.08984375,8.88142904 8.98828125,8.98510742 C8.88671875,9.08878581 8.76188151,9.140625 8.61376953,9.140625 C8.46142578,9.140625 8.33658854,9.08984375 8.23925781,8.98828125 L6.48095703,7.22363281 L4.72900391,8.98828125 C4.62320964,9.08984375 4.49414062,9.140625 4.34179688,9.140625 Z" id="Shape" style="mix-blend-mode: normal;"></path>
                        </g>
                    </g>
                </g>
            </g>
        </g>
    </g>
</svg>