<?xml version="1.0" encoding="UTF-8"?>
<svg width="8px" height="13px" viewBox="0 0 8 13" version="1.1" xmlns="http://www.w3.org/2000/svg" xmlns:xlink="http://www.w3.org/1999/xlink">
    <title>Shape</title>
    <g id="Components" stroke="none" stroke-width="1" fill="none" fill-rule="evenodd" fill-opacity="0.85">
        <g id="Components---Bars,-Controls,-Menus,-and-Lists" transform="translate(-1026.000000, -1113.000000)" fill="#000000" fill-rule="nonzero">
            <g id="Controls" transform="translate(20.000000, 957.000000)">
                <g id="Control-Help-Button-/-Medium" transform="translate(1000.000000, 153.000000)">
                    <path d="M9.69605792,12.4454422 C9.94824501,12.4454422 10.145667,12.3770727 10.288324,12.2403336 C10.430981,12.1035945 10.5163933,11.920934 10.544561,11.6923523 C10.5458835,11.662267 10.547553,11.6319338 10.5495697,11.6013527 C10.5515864,11.5707715 10.553256,11.541893 10.5545784,11.5147171 C10.5722328,11.2715886 10.623262,11.0637525 10.707666,10.8912086 C10.79207,10.7186648 10.9304952,10.5492121 11.1229416,10.3828506 C11.315388,10.2164892 11.5849154,10.0209681 11.9315239,9.79628754 C12.4988457,9.43215688 12.9372803,9.02987417 13.2468277,8.58943939 C13.5563751,8.14900462 13.7111489,7.62532298 13.7111489,7.01839447 C13.7111489,6.37027232 13.5495977,5.81528219 13.2264954,5.35342407 C12.9033931,4.89156596 12.4619995,4.53750229 11.9023148,4.29123306 C11.34263,4.04496384 10.709005,3.92182922 10.0014397,3.92182922 C9.4763695,3.92182922 8.98850914,3.995224 8.53785861,4.14201355 C8.08720807,4.2888031 7.69327319,4.49926758 7.35605395,4.77340698 C7.01883471,5.04754639 6.7593412,5.37633514 6.57757342,5.75977325 C6.50450925,5.91059621 6.45081866,6.06024551 6.41650164,6.20872116 C6.38218462,6.35719681 6.3650086,6.50082906 6.3650086,6.63961792 C6.36370369,6.88856506 6.43726377,7.08993785 6.58570635,7.24373627 C6.73414894,7.39753469 6.94120816,7.4744339 7.20688403,7.4744339 C7.41324898,7.4744339 7.59250414,7.42161942 7.74464953,7.31599045 C7.89679492,7.21036148 8.00887072,7.06319173 8.08087695,6.8744812 C8.18283617,6.54347738 8.32203829,6.27674357 8.4984833,6.07427979 C8.67492831,5.871816 8.88385546,5.72461319 9.12526476,5.63267136 C9.36667407,5.54072952 9.63188708,5.49475861 9.9209038,5.49475861 C10.2712812,5.49475861 10.586763,5.5577062 10.8673493,5.68360138 C11.1479355,5.80949656 11.371211,5.98843765 11.5371758,6.22042465 C11.7031405,6.45241165 11.7861229,6.72365824 11.7861229,7.03416443 C11.7861229,7.31478373 11.733639,7.5585734 11.6286713,7.76553345 C11.5237035,7.97249349 11.3682025,8.16543579 11.1621681,8.34436035 C10.9561338,8.52328491 10.7016325,8.71265666 10.3986641,8.91247559 C10.0831327,9.12108866 9.8052905,9.33985138 9.56513751,9.56876373 C9.32498451,9.79767609 9.13754682,10.0495822 9.00282443,10.324482 C8.86810203,10.5993818 8.80074084,10.9089457 8.80074084,11.2531738 C8.80074084,11.3021037 8.80074084,11.3510005 8.80074084,11.3998642 C8.80074084,11.4487279 8.80074084,11.4982859 8.80074084,11.5485382 C8.80074084,11.8146769 8.87987165,12.0306956 9.03813326,12.1965942 C9.19639488,12.3624929 9.4157031,12.4454422 9.69605792,12.4454422 Z M9.71014178,16.0262146 C9.92225929,16.0262146 10.1151851,15.9766235 10.2889191,15.8774414 C10.4626531,15.7782593 10.6011114,15.644165 10.7042938,15.4751587 C10.8074763,15.3061523 10.8590676,15.1183675 10.8590676,14.9118042 C10.8590676,14.7078857 10.8074763,14.5214068 10.7042938,14.3523674 C10.6011114,14.183328 10.4626531,14.0492338 10.2889191,13.9500847 C10.1151851,13.8509356 9.92225929,13.8013611 9.71014178,13.8013611 C9.50086749,13.8013611 9.31009066,13.8509356 9.1378113,13.9500847 C8.96553195,14.0492338 8.82742083,14.183328 8.72347796,14.3523674 C8.61953509,14.5214068 8.56756365,14.7078857 8.56756365,14.9118042 C8.56756365,15.1183675 8.61953509,15.3061523 8.72347796,15.4751587 C8.82742083,15.644165 8.96553195,15.7782593 9.1378113,15.8774414 C9.31009066,15.9766235 9.50086749,16.0262146 9.71014178,16.0262146 Z" id="Shape"></path>
                </g>
            </g>
        </g>
    </g>
</svg>