<?xml version="1.0" encoding="UTF-8"?>
<svg width="10px" height="2px" viewBox="0 0 10 2" version="1.1" xmlns="http://www.w3.org/2000/svg" xmlns:xlink="http://www.w3.org/1999/xlink">
    <title>Path</title>
    <g id="Components" stroke="none" stroke-width="1" fill="none" fill-rule="evenodd">
        <g id="Components---Bars,-Controls,-Menus,-and-Lists" transform="translate(-22.000000, -1312.000000)" fill="#FFFFFF" fill-rule="nonzero">
            <g id="Controls" transform="translate(20.000000, 957.000000)">
                <g id="Checkboxes" transform="translate(0.000000, 303.000000)">
                    <g id="Checkbox" transform="translate(0.000000, 44.000000)">
                        <g id="Checkbox-Type" transform="translate(0.000000, 2.000000)">
                            <g id="􀅽" transform="translate(2.682863, 6.080750)">
                                <path d="M0.883789062,1.80236816 L7.63328552,1.80236816 C7.79126485,1.80236816 7.93731689,1.76100413 8.07144165,1.67827606 C8.20556641,1.59554799 8.31336975,1.48587545 8.39485168,1.34925842 C8.47633362,1.2126414 8.51707458,1.06246948 8.51707458,0.898742676 C8.51707458,0.735778809 8.47633362,0.585988363 8.39485168,0.449371338 C8.31336975,0.312754313 8.20556641,0.203704834 8.07144165,0.1222229 C7.93731689,0.0407409668 7.79126485,0 7.63328552,0 L0.883789062,0 C0.73328654,0 0.591163635,0.0407409668 0.457420349,0.1222229 C0.323677063,0.203704834 0.214004517,0.312754313 0.12840271,0.449371338 C0.0428009033,0.585988363 0,0.735778809 0,0.898742676 C0,1.06246948 0.0428009033,1.2126414 0.12840271,1.34925842 C0.214004517,1.48587545 0.323677063,1.59554799 0.457420349,1.67827606 C0.591163635,1.76100413 0.73328654,1.80236816 0.883789062,1.80236816 Z" id="Path"></path>
                            </g>
                        </g>
                    </g>
                </g>
            </g>
        </g>
    </g>
</svg>