<?xml version="1.0" encoding="UTF-8"?>
<svg width="9.07152557px" height="1.38322449px" viewBox="0 0 9.07152557 1.38322449" version="1.1" xmlns="http://www.w3.org/2000/svg" xmlns:xlink="http://www.w3.org/1999/xlink">
    <title>Path</title>
    <g id="Components" stroke="none" stroke-width="1" fill="none" fill-rule="evenodd" fill-opacity="0.85">
        <g id="Components---Bars,-Controls,-Menus,-and-Lists" transform="translate(-1258.3696, -2378.4385)" fill="#000000" fill-rule="nonzero">
            <g id="Lists" transform="translate(20, 2147)">
                <g id="Small-List-1" transform="translate(1200, 33)">
                    <g id="Footer" transform="translate(0, 187)">
                        <g id="Default-Button" transform="translate(38.3696, 11.4385)">
                            <path d="M0.682128906,1.38322449 L8.38939667,1.38322449 C8.51158905,1.38322449 8.62470373,1.35182317 8.72874069,1.28902054 C8.83277766,1.22621791 8.91591771,1.14223862 8.97816086,1.03708267 C9.040404,0.931926727 9.07152557,0.815874736 9.07152557,0.688926697 C9.07152557,0.564440409 9.040404,0.449619293 8.97816086,0.344463348 C8.91591771,0.239307404 8.83277766,0.155607859 8.72874069,0.0933647156 C8.62470373,0.0311215719 8.51158905,0 8.38939667,0 L0.682128906,0 C0.563293457,0 0.452486674,0.0311215719 0.349708557,0.0933647156 C0.24693044,0.155607859 0.162951152,0.239307404 0.0977706909,0.344463348 C0.0325902303,0.449619293 0,0.564440409 0,0.688926697 C0,0.815874736 0.0325902303,0.931926727 0.0977706909,1.03708267 C0.162951152,1.14223862 0.24693044,1.22621791 0.349708557,1.28902054 C0.452486674,1.35182317 0.563293457,1.38322449 0.682128906,1.38322449 Z" id="Path"></path>
                        </g>
                    </g>
                </g>
            </g>
        </g>
    </g>
</svg>