<?xml version="1.0" encoding="UTF-8"?>
<svg width="21.171875px" height="12.0929737px" viewBox="0 0 21.171875 12.0929737" version="1.1" xmlns="http://www.w3.org/2000/svg" xmlns:xlink="http://www.w3.org/1999/xlink">
    <title>Group</title>
    <g id="Components" stroke="none" stroke-width="1" fill="none" fill-rule="evenodd" fill-opacity="0.85">
        <g id="Components---Bars,-Controls,-Menus,-and-Lists" transform="translate(-1286.9614, -2372.1009)" fill="#000000" fill-rule="nonzero">
            <g id="Lists" transform="translate(20, 2147)">
                <g id="Small-List-1" transform="translate(1200, 33)">
                    <g id="Footer" transform="translate(0, 187)">
                        <g id="Group" transform="translate(66.9614, 5.1009)">
                            <path d="M18.0427246,8.39662854 C18.1281738,8.39548921 18.2070719,8.3786842 18.2794189,8.3462135 C18.351766,8.3137428 18.4221191,8.26332776 18.4904785,8.19496838 L21.0163574,5.60756604 C21.1200358,5.50502698 21.171875,5.37970145 21.171875,5.23158948 C21.171875,5.13018974 21.1473796,5.03761975 21.0983887,4.95387951 C21.0493978,4.87013928 20.9838867,4.80377372 20.9018555,4.75478283 C20.8198242,4.70579195 20.7286784,4.68129651 20.628418,4.68129651 C20.476888,4.68129651 20.3435872,4.73940198 20.2285156,4.85561291 L17.9060059,7.25331799 L18.1845703,7.25331799 L15.8552246,4.85561291 C15.7390137,4.73940198 15.6051432,4.68129651 15.4536133,4.68129651 C15.3533529,4.68129651 15.262207,4.70579195 15.1801758,4.75478283 C15.0981445,4.80377372 15.0326335,4.87013928 14.9836426,4.95387951 C14.9346517,5.03761975 14.9101562,5.13018974 14.9101562,5.23158948 C14.9101562,5.30564546 14.9229736,5.37372001 14.9486084,5.43581311 C14.9742432,5.49790621 15.0126953,5.55572685 15.0639648,5.60927502 L17.5932617,8.19496838 C17.7288411,8.32940849 17.8786621,8.39662854 18.0427246,8.39662854 Z" id="Path"></path>
                            <path d="M6.13454437,11.3503563 C6.2015152,11.3503563 6.266318,11.3479924 6.32895279,11.3432647 C6.39158758,11.3385371 6.45820872,11.3329282 6.52881622,11.3264381 L6.82707977,11.9014808 C6.85902659,11.9709134 6.90840149,12.0222465 6.97520447,12.0554802 C7.04200745,12.0887138 7.11762238,12.0993161 7.20204926,12.0872871 C7.275678,12.0745308 7.33831278,12.0405418 7.38995361,11.9853202 C7.44159444,11.9300987 7.47312164,11.8620928 7.48453522,11.7813026 L7.57391357,11.1461708 C7.69851176,11.1123217 7.82310994,11.072542 7.94770813,11.0268318 C8.07230632,10.9811215 8.19365946,10.9319145 8.31176758,10.8792106 L8.7843399,11.3044502 C8.84168752,11.3598396 8.90734355,11.3919263 8.98130798,11.4007103 C9.05527242,11.4094942 9.12909698,11.393353 9.20278168,11.3522865 C9.34354909,11.271776 9.39664459,11.1453595 9.36206818,10.9730369 L9.22980499,10.3422691 C9.33420563,10.2710462 9.4379069,10.1932912 9.54090881,10.1090042 C9.64391073,10.0247172 9.74291229,9.93540875 9.83791351,9.84107892 L10.4222717,10.0895759 C10.579656,10.1547564 10.7174861,10.1182497 10.835762,9.98005597 C10.8833186,9.92337974 10.9104398,9.85878674 10.9171257,9.78627698 C10.9238116,9.71376721 10.9048309,9.64279604 10.8601837,9.57336346 L10.5189514,9.0266029 C10.5953776,8.92220227 10.6649081,8.81273826 10.7275429,8.69821087 C10.7901777,8.58368349 10.8503087,8.46591107 10.9079361,8.34489361 L11.5538101,8.3761131 C11.6310196,8.38036521 11.7014732,8.36179018 11.7651711,8.320388 C11.8288689,8.27898582 11.8727748,8.22001568 11.8968887,8.1434776 C11.9216741,8.07046429 11.922905,7.99770276 11.9005814,7.92519299 C11.8782578,7.85268323 11.8369675,7.79265006 11.7767105,7.7450935 L11.2709045,7.34670941 C11.3040822,7.22440513 11.3334414,7.09825436 11.3589821,6.96825711 C11.3845228,6.83825985 11.4026642,6.70477978 11.4134064,6.56781689 L12.0173187,6.37739483 C12.184494,6.32071861 12.2680817,6.20879284 12.2680817,6.04161755 C12.2680817,5.87673616 12.184494,5.76626507 12.0173187,5.71020428 L11.4134064,5.51449505 C11.4026642,5.38044151 11.3845228,5.24932527 11.3589821,5.12114636 C11.3334414,4.99296745 11.3040822,4.8662432 11.2709045,4.74097363 L11.7757034,4.33721844 C11.8366318,4.29189984 11.8782578,4.23494387 11.9005814,4.16635052 C11.922905,4.09775718 11.9216741,4.02583488 11.8968887,3.95058362 C11.8727748,3.87337414 11.8288689,3.81406832 11.7651711,3.77266614 C11.7014732,3.73126395 11.6310196,3.71235323 11.5538101,3.71593396 L10.9079361,3.74178235 C10.8503087,3.62076489 10.7901777,3.50388765 10.7275429,3.39115063 C10.6649081,3.27841361 10.5953776,3.16771873 10.5189514,3.05906598 L10.8601837,2.5133125 C10.9041595,2.44813204 10.9229724,2.37928692 10.9166222,2.30677716 C10.910272,2.23426739 10.8833186,2.16964642 10.835762,2.11291424 C10.7181015,1.97544781 10.5799357,1.93896913 10.4212646,2.00347821 L9.83589935,2.24022595 C9.74156952,2.15372896 9.64307149,2.06760963 9.54040527,1.98186795 C9.43773905,1.89612627 9.33420563,1.81697257 9.22980499,1.74440686 L9.36206818,1.11901013 C9.37902069,1.03592602 9.37356567,0.960422992 9.34570312,0.892501035 C9.31784058,0.824579079 9.26919301,0.771875222 9.19976044,0.734389463 C9.12747447,0.6946098 9.05418142,0.678804238 8.97988129,0.686972776 C8.90558116,0.695141314 8.8404007,0.728682676 8.7843399,0.787596861 L8.31176758,1.2041084 C8.19365946,1.15073315 8.07213847,1.10281292 7.94720459,1.06034772 C7.82227071,1.01788251 7.69784037,0.978270689 7.57391357,0.941512266 L7.48453522,0.30638043 C7.47312164,0.229170957 7.4414266,0.162787595 7.38945007,0.107230344 C7.33747355,0.0516730935 7.27254486,0.0175162941 7.194664,0.00475994648 C7.11454519,-0.00726906556 7.04157384,0.00350109639 6.97574997,0.0370704323 C6.9099261,0.0706397683 6.86104075,0.119678973 6.82909393,0.184188047 L6.52881622,0.761244932 C6.45820872,0.754698911 6.39158758,0.749803383 6.32895279,0.746558347 C6.266318,0.743313312 6.2015152,0.741690794 6.13454437,0.741690794 C6.06684621,0.741690794 6.0009524,0.743313312 5.93686295,0.746558347 C5.87277349,0.749803383 5.80687968,0.754698911 5.73918152,0.761244932 L5.43655396,0.185195127 C5.40332031,0.11934328 5.35362371,0.0698005349 5.28746414,0.0365668923 C5.22130458,0.00333324971 5.147494,-0.0069333722 5.06603241,0.00576702656 C4.98943837,0.0178519875 4.92532094,0.0516730935 4.87368011,0.107230344 C4.82203929,0.162787595 4.79196676,0.229170957 4.78346252,0.30638043 L4.68980408,0.937148252 C4.56582133,0.973906675 4.44209035,1.01424583 4.31861115,1.05816571 C4.19513194,1.10208559 4.07288361,1.15073315 3.95186615,1.2041084 L3.4803009,0.788603941 C3.42362467,0.729018369 3.35813649,0.695141314 3.28383636,0.686972776 C3.20953623,0.678804238 3.13554382,0.6946098 3.06185913,0.734389463 C2.99376933,0.771875222 2.94579315,0.824579079 2.9179306,0.892501035 C2.89006805,0.960422992 2.88427734,1.03626172 2.90055847,1.12001721 L3.03382874,1.74440686 C2.9294281,1.81697257 2.82589467,1.89612627 2.72322845,1.98186795 C2.62056224,2.06760963 2.52172852,2.15372896 2.42672729,2.24022595 L1.841362,2.00347821 C1.68336233,1.93896913 1.54701487,1.97544781 1.43231964,2.11291424 C1.38118235,2.16964642 1.35259247,2.23426739 1.34654999,2.30677716 C1.34050751,2.37928692 1.35913849,2.44664939 1.40244293,2.50886456 L1.74468231,3.05906598 C1.67116547,3.16771873 1.60236231,3.27841361 1.53827286,3.39115063 C1.4741834,3.50388765 1.41335297,3.62076489 1.35578156,3.74178235 L0.714271545,3.71593396 C0.634096781,3.71235323 0.562887828,3.73126395 0.500644684,3.77266614 C0.43840154,3.81406832 0.393432617,3.87303845 0.365737915,3.94957654 C0.341008504,4.02549918 0.339232127,4.09792503 0.360408783,4.16685406 C0.381585439,4.2357831 0.423784892,4.29257123 0.487007141,4.33721844 L0.99180603,4.74189679 C0.958628337,4.86716636 0.93015035,4.99373674 0.90637207,5.12160794 C0.882593791,5.24947913 0.866816203,5.38044151 0.859039307,5.51449505 L0.245391846,5.71020428 C0.0817972819,5.76335573 0,5.87382682 0,6.04161755 C0,6.20879284 0.0817972819,6.32071861 0.245391846,6.37739483 L0.859039307,6.57218091 C0.866816203,6.70623445 0.882593791,6.83825985 0.90637207,6.96825711 C0.93015035,7.09825436 0.958628337,7.22440513 0.99180603,7.34670941 L0.487930298,7.7450935 C0.427001953,7.79332145 0.385949453,7.85279512 0.364772797,7.92351452 C0.343596141,7.99423393 0.343917847,8.06688356 0.365737915,8.14146344 C0.393432617,8.2193443 0.43840154,8.27898582 0.500644684,8.320388 C0.562887828,8.36179018 0.634432475,8.38036521 0.715278625,8.3761131 L1.35578156,8.34489361 C1.41335297,8.46591107 1.4741834,8.58368349 1.53827286,8.69821087 C1.60236231,8.81273826 1.67116547,8.92220227 1.74468231,9.0266029 L1.40151978,9.57537762 C1.35815938,9.64279604 1.33966827,9.71292798 1.34604645,9.78577344 C1.35242462,9.85861889 1.38118235,9.92337974 1.43231964,9.98005597 C1.54701487,10.1175783 1.68369802,10.1534136 1.84236908,10.0875618 L2.42580414,9.84107892 C2.52080536,9.93540875 2.61979294,10.0247172 2.72276688,10.1090042 C2.82574081,10.1932912 2.9294281,10.2710462 3.03382874,10.3422691 L2.90055847,10.974044 C2.88494873,11.052876 2.89075343,11.126253 2.91797256,11.1941749 C2.9451917,11.2620969 2.99382528,11.3151364 3.06387329,11.3532936 C3.13845317,11.3936887 3.21216583,11.4096481 3.28501129,11.4011718 C3.35785675,11.3926956 3.42261759,11.3607628 3.47929382,11.3053733 L3.95186615,10.8792106 C4.07288361,10.9319145 4.19496409,10.9811215 4.3181076,11.0268318 C4.44125112,11.072542 4.56514994,11.1123217 4.68980408,11.1461708 L4.78346252,11.7813026 C4.79196676,11.8620928 4.82220713,11.9302665 4.87418365,11.9858238 C4.92616018,12.041381 4.99108887,12.0755099 5.06896973,12.0882103 C5.14914449,12.1002952 5.22214381,12.0893852 5.28796768,12.0554802 C5.35379155,12.0215751 5.40332031,11.9705777 5.43655396,11.9024879 L5.73918152,11.3264381 C5.80687968,11.3329282 5.87277349,11.3385371 5.93686295,11.3432647 C6.0009524,11.3479924 6.06684621,11.3503563 6.13454437,11.3503563 Z M6.13454437,10.3723976 C5.531751,10.3723976 4.97104518,10.2608495 4.45242691,10.0377533 C3.93380864,9.81465705 3.47993724,9.50546948 3.09081268,9.11019055 C2.70168813,8.71491162 2.3979276,8.25519355 2.1795311,7.73103634 C1.96113459,7.20687914 1.85193634,6.64488649 1.85193634,6.04505841 C1.85193634,5.44523032 1.96113459,4.88306983 2.1795311,4.35857693 C2.3979276,3.83408403 2.70168813,3.37419812 3.09081268,2.97891919 C3.47993724,2.58364026 3.93380864,2.27460654 4.45242691,2.05181805 C4.97104518,1.82902956 5.531751,1.71763531 6.13454437,1.71763531 C6.7372818,1.71763531 7.29797363,1.82902956 7.81661987,2.05181805 C8.33526611,2.27460654 8.78913752,2.58364026 9.1782341,2.97891919 C9.56733068,3.37419812 9.87107722,3.83408403 10.0894737,4.35857693 C10.3078702,4.88306983 10.4170685,5.44523032 10.4170685,6.04505841 C10.4170685,6.64488649 10.3078702,7.20687914 10.0894737,7.73103634 C9.87107722,8.25519355 9.56733068,8.71491162 9.1782341,9.11019055 C8.78913752,9.50546948 8.33526611,9.81465705 7.81661987,10.0377533 C7.29797363,10.2608495 6.7372818,10.3723976 6.13454437,10.3723976 Z M6.12472534,7.56138531 C6.44122823,7.56138531 6.72575633,7.46803458 6.97830963,7.28133313 C7.23086294,7.09463167 7.42195638,6.82367118 7.55158997,6.46845166 L10.9716339,6.46845166 L10.9662628,5.62644879 L7.55259705,5.62644879 C7.42005412,5.27906211 7.22733816,5.0143679 6.97444916,4.83236615 C6.72156016,4.6503644 6.43831889,4.55936352 6.12472534,4.55936352 C6.07789612,4.55936352 6.02731832,4.5624547 5.97299194,4.56863705 C5.91866557,4.5748194 5.85116323,4.58621899 5.77048492,4.60283581 L4.05945587,1.66946332 L3.30599213,2.07120434 L5.0526886,5.05652539 C4.90917969,5.21279065 4.80332438,5.37533617 4.73512268,5.54416195 C4.66692098,5.71298774 4.63282013,5.88613558 4.63282013,6.06360547 C4.63282013,6.23385795 4.66585795,6.39956458 4.73193359,6.56072537 C4.79800924,6.72188616 4.9034729,6.88417991 5.04832458,7.04760663 L3.24497986,10.0055687 L3.99013519,10.4254371 L5.76553345,7.51363293 C5.84391785,7.53310315 5.91135025,7.54592943 5.96783066,7.55211178 C6.02431107,7.55829414 6.07660929,7.56138531 6.12472534,7.56138531 Z M5.48321533,6.05915753 C5.48321533,5.87788312 5.54790624,5.7250727 5.67728806,5.60072629 C5.80666987,5.47637987 5.95875295,5.41420666 6.13353729,5.41420666 C6.31123098,5.41420666 6.46444702,5.47637987 6.59318542,5.60072629 C6.72192383,5.7250727 6.78629303,5.87788312 6.78629303,6.05915753 C6.78629303,6.23690716 6.72192383,6.38974555 6.59318542,6.5176727 C6.46444702,6.64559984 6.31123098,6.70956341 6.13353729,6.70956341 C5.95936839,6.70956341 5.80743917,6.64559984 5.67774963,6.5176727 C5.5480601,6.38974555 5.48321533,6.23690716 5.48321533,6.05915753 Z" id="Shape"></path>
                        </g>
                    </g>
                </g>
            </g>
        </g>
    </g>
</svg>