<?xml version="1.0" encoding="UTF-8"?>
<svg width="9.08679962px" height="9.08679962px" viewBox="0 0 9.08679962 9.08679962" version="1.1" xmlns="http://www.w3.org/2000/svg" xmlns:xlink="http://www.w3.org/1999/xlink">
    <title>Path</title>
    <g id="Components" stroke="none" stroke-width="1" fill="none" fill-rule="evenodd" fill-opacity="0.85">
        <g id="Components---Bars,-Controls,-Menus,-and-Lists" transform="translate(-1229.3696, -2374.5804)" fill="#000000" fill-rule="nonzero">
            <g id="Lists" transform="translate(20, 2147)">
                <g id="Small-List-1" transform="translate(1200, 33)">
                    <g id="Footer" transform="translate(0, 187)">
                        <g id="Default-Button" transform="translate(9.3696, 7.5804)">
                            <path d="M0,4.54335785 C0,4.73481496 0.0678520203,4.8977801 0.203556061,5.03225327 C0.339260101,5.16672643 0.501609802,5.23396301 0.690605164,5.23396301 L3.85451508,5.23396301 L3.85451508,8.39787292 C3.85451508,8.58574931 3.92147191,8.74753952 4.05538559,8.88324356 C4.18929927,9.0189476 4.35198466,9.08679962 4.54344177,9.08679962 C4.73484294,9.08679962 4.89839554,9.0189476 5.03409958,8.88324356 C5.16980362,8.74753952 5.23765564,8.58574931 5.23765564,8.39787292 L5.23765564,5.23396301 L8.39787292,5.23396301 C8.58574931,5.23396301 8.74753952,5.16672643 8.88324356,5.03225327 C9.0189476,4.8977801 9.08679962,4.73481496 9.08679962,4.54335785 C9.08679962,4.35190074 9.0189476,4.18832016 8.88324356,4.05261612 C8.74753952,3.91691208 8.58574931,3.84906006 8.39787292,3.84906006 L5.23765564,3.84906006 L5.23765564,0.690605164 C5.23765564,0.501609802 5.16980362,0.339260101 5.03409958,0.203556061 C4.89839554,0.0678520203 4.73484294,0 4.54344177,0 C4.35198466,0 4.18929927,0.0678520203 4.05538559,0.203556061 C3.92147191,0.339260101 3.85451508,0.501609802 3.85451508,0.690605164 L3.85451508,3.84906006 L0.690605164,3.84906006 C0.501609802,3.84906006 0.339260101,3.91691208 0.203556061,4.05261612 C0.0678520203,4.18832016 0,4.35190074 0,4.54335785 Z" id="Path"></path>
                        </g>
                    </g>
                </g>
            </g>
        </g>
    </g>
</svg>