<?xml version="1.0" encoding="UTF-8"?>
<svg width="9.83984375px" height="5.83837891px" viewBox="0 0 9.83984375 5.83837891" version="1.1" xmlns="http://www.w3.org/2000/svg" xmlns:xlink="http://www.w3.org/1999/xlink">
    <title>Path</title>
    <g id="Components" stroke="none" stroke-width="1" fill="none" fill-rule="evenodd" fill-opacity="0.85">
        <g id="Components---Bars,-Controls,-Menus,-and-Lists" transform="translate(-197.3696, -2190.3721)" fill="#000000" fill-rule="nonzero">
            <g id="Lists" transform="translate(20, 2147)">
                <g id="Standard-List" transform="translate(0, 33)">
                    <g id="Header" transform="translate(19, 0)">
                        <g id="Right-Detail" transform="translate(158.3696, 5)">
                            <g id="Sort-Indicator" transform="translate(0, 5.3721)">
                                <path d="M4.92260742,5.83837891 C5.05688477,5.83658854 5.18086751,5.81018066 5.29455566,5.75915527 C5.40824382,5.70812988 5.51879883,5.62890625 5.6262207,5.52148438 L9.59545898,1.45556641 C9.75838216,1.29443359 9.83984375,1.09749349 9.83984375,0.864746094 C9.83984375,0.705403646 9.80135091,0.559936523 9.72436523,0.428344727 C9.64737956,0.29675293 9.54443359,0.192464193 9.41552734,0.115478516 C9.28662109,0.0384928385 9.14339193,0 8.98583984,0 C8.74772135,0 8.5382487,0.0913085938 8.35742188,0.273925781 L4.70776367,4.04174805 L5.14550781,4.04174805 L1.48510742,0.273925781 C1.30249023,0.0913085938 1.0921224,0 0.854003906,0 C0.696451823,0 0.553222656,0.0384928385 0.424316406,0.115478516 C0.295410156,0.192464193 0.192464193,0.29675293 0.115478516,0.428344727 C0.0384928385,0.559936523 0,0.705403646 0,0.864746094 C0,0.981119792 0.0201416016,1.08809408 0.0604248047,1.18566895 C0.100708008,1.28324382 0.161132812,1.37410482 0.241699219,1.45825195 L4.21630859,5.52148438 C4.42936198,5.7327474 4.66479492,5.83837891 4.92260742,5.83837891 Z" id="Path"></path>
                            </g>
                        </g>
                    </g>
                </g>
            </g>
        </g>
    </g>
</svg>