<?xml version="1.0" encoding="UTF-8"?>
<svg width="16px" height="16px" viewBox="0 0 16 16" version="1.1" xmlns="http://www.w3.org/2000/svg" xmlns:xlink="http://www.w3.org/1999/xlink">
    <title>PopUpButton - No Color Copy</title>
    <g id="Components" stroke="none" stroke-width="1" fill="none" fill-rule="evenodd">
        <g id="Components---Bars,-Controls,-Menus,-and-Lists" transform="translate(-667.000000, -992.000000)">
            <g id="Controls" transform="translate(20.000000, 957.000000)">
                <g id="Pop-Up-Button" transform="translate(599.000000, 33.000000)">
                    <g id="Pop-Up-Button---Enabled-with-Color" transform="translate(1.000000, 0.000000)">
                        <g id="PopUpButton---No-Color-Copy" transform="translate(47.000000, 2.000000)">
                            <path d="M5.1277704,-2.07168062e-16 L10.8722296,2.07168062e-16 C12.6552671,-1.2037061e-16 13.3018396,0.185651222 13.9536914,0.534265408 C14.6055433,0.882879593 15.1171204,1.39445674 15.4657346,2.04630859 C15.8143488,2.69816044 16,3.34473292 16,5.1277704 L16,10.8722296 C16,12.6552671 15.8143488,13.3018396 15.4657346,13.9536914 C15.1171204,14.6055433 14.6055433,15.1171204 13.9536914,15.4657346 C13.3018396,15.8143488 12.6552671,16 10.8722296,16 L5.1277704,16 C3.34473292,16 2.69816044,15.8143488 2.04630859,15.4657346 C1.39445674,15.1171204 0.882879593,14.6055433 0.534265408,13.9536914 C0.185651222,13.3018396 8.02470732e-17,12.6552671 -1.38112041e-16,10.8722296 L1.38112041e-16,5.1277704 C-8.02470732e-17,3.34473292 0.185651222,2.69816044 0.534265408,2.04630859 C0.882879593,1.39445674 1.39445674,0.882879593 2.04630859,0.534265408 C2.69816044,0.185651222 3.34473292,1.2037061e-16 5.1277704,-2.07168062e-16 Z" id="BG" fill="#FFFFFF"></path>
                            <path d="M8.24012756,13.6094131 C8.35505676,13.6076686 8.45997238,13.5851491 8.55487442,13.5418549 C8.64977646,13.4985606 8.74434916,13.4295247 8.83859253,13.3347473 L11.2770996,10.8339157 C11.4085134,10.7025019 11.4742203,10.5413589 11.4742203,10.3504868 C11.4742203,10.219607 11.4426397,10.1001116 11.3794785,9.99200058 C11.3163172,9.88388952 11.2312419,9.79738108 11.1242523,9.73247528 C11.0172628,9.66756948 10.9000905,9.63511658 10.7727356,9.63511658 C10.5748494,9.63511658 10.4003372,9.71365865 10.2491989,9.8707428 L8.1394043,12.0727158 L8.35051727,12.0727158 L6.23025513,9.8707428 C6.0761261,9.71365865 5.90074158,9.63511658 5.70410156,9.63511658 C5.57496643,9.63511658 5.45734914,9.66756948 5.35124969,9.73247528 C5.24515025,9.79738108 5.16008377,9.88388952 5.09605026,9.99200058 C5.03201675,10.1001116 5,10.219607 5,10.3504868 C5,10.4444453 5.01627096,10.5311852 5.04881287,10.6107063 C5.08135478,10.6902275 5.13079071,10.7648977 5.19712067,10.8347168 L7.63819122,13.3347473 C7.82187144,13.5178579 8.02251689,13.6094131 8.24012756,13.6094131 Z M5.19712067,5.77549744 L7.63819122,3.27546692 C7.82080332,3.09182231 8.02144877,3 8.24012756,3 C8.35505676,3.00174459 8.45997238,3.02483368 8.55487442,3.06926727 C8.64977646,3.11370087 8.74434916,3.18243408 8.83859253,3.27546692 L11.2770996,5.77549744 C11.4085134,5.90637716 11.4742203,6.06865946 11.4742203,6.26234436 C11.4742203,6.39144389 11.4426397,6.50992457 11.3794785,6.61778641 C11.3163172,6.72564824 11.2312419,6.81203206 11.1242523,6.87693787 C11.0172628,6.94184367 10.9000905,6.97429657 10.7727356,6.97429657 C10.5732829,6.97429657 10.3987707,6.8957545 10.2491989,6.73867035 L8.1394043,4.53749847 L8.35051727,4.53749847 L6.23025513,6.73867035 C6.07772827,6.8957545 5.90234375,6.97429657 5.70410156,6.97429657 C5.57496643,6.97429657 5.45734914,6.94184367 5.35124969,6.87693787 C5.24515025,6.81203206 5.16008377,6.72564824 5.09605026,6.61778641 C5.03201675,6.50992457 5,6.39144389 5,6.26234436 C5,6.16664124 5.01627096,6.07889557 5.04881287,5.99910736 C5.08135478,5.91931915 5.13079071,5.84478251 5.19712067,5.77549744 Z" id="arrow-control-icon-copy" fill-opacity="0.85" fill="#000000" fill-rule="nonzero"></path>
                        </g>
                    </g>
                </g>
            </g>
        </g>
    </g>
</svg>