<?xml version="1.0" encoding="UTF-8"?>
<svg width="22px" height="23px" viewBox="0 0 22 23" version="1.1" xmlns="http://www.w3.org/2000/svg" xmlns:xlink="http://www.w3.org/1999/xlink">
    <title>button</title>
    <defs>
        <path d="M5.1277704,-2.07168062e-16 L10.8722296,2.07168062e-16 C12.6552671,-1.2037061e-16 13.3018396,0.185651222 13.9536914,0.534265408 C14.6055433,0.882879593 15.1171204,1.39445674 15.4657346,2.04630859 C15.8143488,2.69816044 16,3.34473292 16,5.1277704 L16,10.8722296 C16,12.6552671 15.8143488,13.3018396 15.4657346,13.9536914 C15.1171204,14.6055433 14.6055433,15.1171204 13.9536914,15.4657346 C13.3018396,15.8143488 12.6552671,16 10.8722296,16 L5.1277704,16 C3.34473292,16 2.69816044,15.8143488 2.04630859,15.4657346 C1.39445674,15.1171204 0.882879593,14.6055433 0.534265408,13.9536914 C0.185651222,13.3018396 8.02470732e-17,12.6552671 -1.38112041e-16,10.8722296 L1.38112041e-16,5.1277704 C-8.02470732e-17,3.34473292 0.185651222,2.69816044 0.534265408,2.04630859 C0.882879593,1.39445674 1.39445674,0.882879593 2.04630859,0.534265408 C2.69816044,0.185651222 3.34473292,1.2037061e-16 5.1277704,-2.07168062e-16 Z" id="path-1"></path>
        <filter x="-29.7%" y="-26.6%" width="159.4%" height="159.4%" filterUnits="objectBoundingBox" id="filter-2">
            <feOffset dx="0" dy="0.5" in="SourceAlpha" result="shadowOffsetOuter1"></feOffset>
            <feGaussianBlur stdDeviation="0.5" in="shadowOffsetOuter1" result="shadowBlurOuter1"></feGaussianBlur>
            <feColorMatrix values="0 0 0 0 1   0 0 0 0 1   0 0 0 0 1  0 0 0 0.24 0" type="matrix" in="shadowBlurOuter1" result="shadowMatrixOuter1"></feColorMatrix>
            <feOffset dx="0" dy="1" in="SourceAlpha" result="shadowOffsetOuter2"></feOffset>
            <feGaussianBlur stdDeviation="1" in="shadowOffsetOuter2" result="shadowBlurOuter2"></feGaussianBlur>
            <feColorMatrix values="0 0 0 0 1   0 0 0 0 1   0 0 0 0 1  0 0 0 0.12 0" type="matrix" in="shadowBlurOuter2" result="shadowMatrixOuter2"></feColorMatrix>
            <feOffset dx="0" dy="0.5" in="SourceAlpha" result="shadowOffsetOuter3"></feOffset>
            <feGaussianBlur stdDeviation="1.5" in="shadowOffsetOuter3" result="shadowBlurOuter3"></feGaussianBlur>
            <feColorMatrix values="0 0 0 0 1   0 0 0 0 1   0 0 0 0 1  0 0 0 0.12 0" type="matrix" in="shadowBlurOuter3" result="shadowMatrixOuter3"></feColorMatrix>
            <feMerge>
                <feMergeNode in="shadowMatrixOuter1"></feMergeNode>
                <feMergeNode in="shadowMatrixOuter2"></feMergeNode>
                <feMergeNode in="shadowMatrixOuter3"></feMergeNode>
            </feMerge>
        </filter>
        <linearGradient x1="50%" y1="-2.48949813e-15%" x2="50%" y2="96.1557242%" id="linearGradient-3">
            <stop stop-color="#FFFFFF" offset="0%"></stop>
            <stop stop-color="#FFFFFF" stop-opacity="0" offset="100%"></stop>
        </linearGradient>
    </defs>
    <g id="Components" stroke="none" stroke-width="1" fill="none" fill-rule="evenodd">
        <g id="Components---Bars,-Controls,-Menus,-and-Lists" transform="translate(-864.000000, -989.000000)">
            <g id="Controls" transform="translate(20.000000, 957.000000)">
                <g id="Pull-Down-Button" transform="translate(799.000000, 33.000000)">
                    <g id="Pull-Down-Button---Enabled-with-Color" transform="translate(1.000000, 0.000000)">
                        <g id="button" transform="translate(47.000000, 2.000000)">
                            <g id="Fill-and-Shadow">
                                <use fill="black" fill-opacity="1" filter="url(#filter-2)" xlink:href="#path-1"></use>
                                <use fill="#007AFF" fill-rule="evenodd" xlink:href="#path-1"></use>
                            </g>
                            <path d="M5.1277704,-2.07168062e-16 L10.8722296,2.07168062e-16 C12.6552671,-1.2037061e-16 13.3018396,0.185651222 13.9536914,0.534265408 C14.6055433,0.882879593 15.1171204,1.39445674 15.4657346,2.04630859 C15.8143488,2.69816044 16,3.34473292 16,5.1277704 L16,10.8722296 C16,12.6552671 15.8143488,13.3018396 15.4657346,13.9536914 C15.1171204,14.6055433 14.6055433,15.1171204 13.9536914,15.4657346 C13.3018396,15.8143488 12.6552671,16 10.8722296,16 L5.1277704,16 C3.34473292,16 2.69816044,15.8143488 2.04630859,15.4657346 C1.39445674,15.1171204 0.882879593,14.6055433 0.534265408,13.9536914 C0.185651222,13.3018396 8.02470732e-17,12.6552671 -1.38112041e-16,10.8722296 L1.38112041e-16,5.1277704 C-8.02470732e-17,3.34473292 0.185651222,2.69816044 0.534265408,2.04630859 C0.882879593,1.39445674 1.39445674,0.882879593 2.04630859,0.534265408 C2.69816044,0.185651222 3.34473292,1.2037061e-16 5.1277704,-2.07168062e-16 Z" id="Gradient" fill="url(#linearGradient-3)" opacity="0.17" style="mix-blend-mode: lighten;"></path>
                            <path d="M8.09072113,10.0741425 C8.19867198,10.0723979 8.29748154,10.0511869 8.38714981,10.0105095 C8.47681808,9.9698321 8.56615702,9.90559387 8.65516663,9.8177948 L11.1172256,7.29597473 C11.2434057,7.17157491 11.3064957,7.01830037 11.3064957,6.83615112 C11.3064957,6.71228536 11.2762235,6.59891383 11.2156792,6.49603653 C11.1551348,6.39315923 11.0744298,6.31144842 10.9735641,6.25090408 C10.8726985,6.19035975 10.761205,6.16008759 10.6390839,6.16008759 C10.4517008,6.16008759 10.2868017,6.23337809 10.1443863,6.37995911 L7.97953033,8.62914276 L8.21163177,8.62914276 L6.03630829,6.37995911 C5.89093781,6.23337809 5.72516632,6.16008759 5.53899384,6.16008759 C5.41687266,6.16008759 5.30537923,6.19035975 5.20451355,6.25090408 C5.10364787,6.31144842 5.02294286,6.39315923 4.96239853,6.49603653 C4.9018542,6.59891383 4.87158203,6.71228536 4.87158203,6.83615112 C4.87158203,6.92662048 4.88698069,7.00943502 4.91777802,7.08459473 C4.94857534,7.15975444 4.99537659,7.23048147 5.05818176,7.29677582 L7.52552795,9.8177948 C7.69696045,9.98869324 7.88535817,10.0741425 8.09072113,10.0741425 Z" id="Path" fill="#FFFFFF" fill-rule="nonzero"></path>
                        </g>
                    </g>
                </g>
            </g>
        </g>
    </g>
</svg>