<?xml version="1.0" encoding="UTF-8"?>
<svg width="6.30226135px" height="6.30001831px" viewBox="0 0 6.30226135 6.30001831" version="1.1" xmlns="http://www.w3.org/2000/svg" xmlns:xlink="http://www.w3.org/1999/xlink">
    <title>Path</title>
    <g id="Components" stroke="none" stroke-width="1" fill="none" fill-rule="evenodd">
        <g id="Components---Bars,-Controls,-Menus,-and-Lists" transform="translate(-223.728761, -1265.737000)" fill="#FFFFFF" fill-rule="nonzero">
            <g id="Controls" transform="translate(20.000000, 957.000000)">
                <g id="Radio-Buttons" transform="translate(200.000000, 303.000000)">
                    <g id="Radio-Button-Type" transform="translate(0.000000, 2.000000)">
                        <path d="M6.87876979,10.0370178 C7.31242457,10.0370178 7.71953669,9.95514679 8.10010615,9.79140472 C8.48067561,9.62766266 8.8153924,9.40098572 9.10425654,9.1113739 C9.39312068,8.82176208 9.61979762,8.48704529 9.78428736,8.10722351 C9.94877711,7.72740173 10.031022,7.32066345 10.031022,6.88700867 C10.031022,6.45335388 9.94877711,6.0466156 9.78428736,5.66679382 C9.61979762,5.28697205 9.39312068,4.95225525 9.10425654,4.66264343 C8.8153924,4.37303162 8.48056117,4.14635468 8.09976283,3.98261261 C7.71896449,3.81887054 7.31173792,3.73699951 6.87808314,3.73699951 C6.44592372,3.73699951 6.03955927,3.81887054 5.65898982,3.98261261 C5.27842036,4.14635468 4.94344416,4.37303162 4.65406123,4.66264343 C4.36467829,4.95225525 4.13811579,5.28697205 3.97437373,5.66679382 C3.81063166,6.0466156 3.72876063,6.45335388 3.72876063,6.88700867 C3.72876063,7.32066345 3.81063166,7.72740173 3.97437373,8.10722351 C4.13811579,8.48704529 4.36479273,8.82176208 4.65440455,9.1113739 C4.94401637,9.40098572 5.279107,9.62766266 5.65967646,9.79140472 C6.04024592,9.95514679 6.44661036,10.0370178 6.87876979,10.0370178 Z" id="Path"></path>
                    </g>
                </g>
            </g>
        </g>
    </g>
</svg>