<?xml version="1.0" encoding="UTF-8"?>
<svg width="12.5348358px" height="12.6507797px" viewBox="0 0 12.5348358 12.6507797" version="1.1" xmlns="http://www.w3.org/2000/svg" xmlns:xlink="http://www.w3.org/1999/xlink">
    <title>Shape</title>
    <g id="Components" stroke="none" stroke-width="1" fill="none" fill-rule="evenodd">
        <g id="Components---Bars,-Controls,-Menus,-and-Lists" transform="translate(-1228.459961, -1475.094231)" fill="#4D4D4D" fill-rule="nonzero">
            <g id="Controls" transform="translate(20.000000, 957.000000)">
                <g id="Search-Field" transform="translate(1200.000000, 513.000000)">
                    <g id="Symbol" transform="translate(8.459961, 5.094231)">
                        <path d="M0,5.16778564 C0,5.88077291 0.133895874,6.54940923 0.401687622,7.17369461 C0.66947937,7.79797999 1.04058584,8.34753164 1.51500702,8.82234955 C1.9894282,9.29716746 2.53878148,9.66829046 3.16306686,9.93571854 C3.78735224,10.2031466 4.45598857,10.3368607 5.16897583,10.3368607 C5.69662476,10.3368607 6.20101547,10.2593994 6.68214798,10.1044769 C7.16328049,9.94955444 7.60614522,9.73561859 8.01074219,9.46266937 L10.9231262,12.3802109 C11.0171509,12.4707972 11.1224492,12.5385386 11.2390213,12.5834351 C11.3555934,12.6283315 11.4774882,12.6507797 11.6047058,12.6507797 C11.7858124,12.6507797 11.946504,12.6092555 12.0867805,12.526207 C12.2270571,12.4431585 12.3368022,12.3297602 12.4160156,12.1860123 C12.4952291,12.0422643 12.5348358,11.8819529 12.5348358,11.7050781 C12.5348358,11.578654 12.5123876,11.4587924 12.4674911,11.3454933 C12.4225947,11.2321943 12.3558121,11.1312103 12.2671432,11.0425415 L9.37727356,8.13600922 C9.67832438,7.7213618 9.91371663,7.26231384 10.0834503,6.75886536 C10.253184,6.25541687 10.3380508,5.72505697 10.3380508,5.16778564 C10.3380508,4.45559184 10.2041384,3.78735224 9.93631363,3.16306686 C9.66848882,2.53878148 9.29718399,1.98922984 8.82239914,1.51441193 C8.34761429,1.03959401 7.79826101,0.668487549 7.17433929,0.401092529 C6.55041758,0.13369751 5.88196309,0 5.16897583,0 C4.45598857,0 3.78735224,0.13369751 3.16306686,0.401092529 C2.53878148,0.668487549 1.9894282,1.03959401 1.51500702,1.51441193 C1.04058584,1.98922984 0.66947937,2.53878148 0.401687622,3.16306686 C0.133895874,3.78735224 0,4.45559184 0,5.16778564 Z M1.35076141,5.16778564 C1.35076141,4.64093018 1.44931539,4.14705276 1.64642334,3.68615341 C1.84353129,3.22525406 2.11753845,2.8193512 2.46844482,2.46844482 C2.8193512,2.11753845 3.22527059,1.84353129 3.686203,1.64642334 C4.14713542,1.44931539 4.64139303,1.35076141 5.16897583,1.35076141 C5.69662476,1.35076141 6.1908989,1.44931539 6.65179825,1.64642334 C7.1126976,1.84353129 7.51774089,2.11753845 7.8669281,2.46844482 C8.21611532,2.8193512 8.48994064,3.22525406 8.68840408,3.68615341 C8.88686752,4.14705276 8.98609924,4.64093018 8.98609924,5.16778564 C8.98609924,5.69543457 8.88686752,6.18970871 8.68840408,6.65060806 C8.48994064,7.11150742 8.21611532,7.5165507 7.8669281,7.86573792 C7.51774089,8.21492513 7.1126976,8.48893229 6.65179825,8.6877594 C6.1908989,8.88658651 5.69662476,8.98600006 5.16897583,8.98600006 C4.64139303,8.98600006 4.14713542,8.88658651 3.686203,8.6877594 C3.22527059,8.48893229 2.8193512,8.21492513 2.46844482,7.86573792 C2.11753845,7.5165507 1.84353129,7.11150742 1.64642334,6.65060806 C1.44931539,6.18970871 1.35076141,5.69543457 1.35076141,5.16778564 Z" id="Shape" style="mix-blend-mode: normal;"></path>
                    </g>
                </g>
            </g>
        </g>
    </g>
</svg>